<svg width="319" height="40" fill="none" xmlns="http://www.w3.org/2000/svg">
  <path opacity=".2" d="M35 18.75H5L9.67 8.242a1.25 1.25 0 0 1 1.143-.742h18.374a1.25 1.25 0 0 1 1.143.742L35 18.75Z" fill="#40DDB6"/>
  <path d="M37.5 17.5h-1.688l-4.34-9.766a2.5 2.5 0 0 0-2.285-1.484H10.813a2.5 2.5 0 0 0-2.284 1.484L4.188 17.5H2.5a1.25 1.25 0 0 0 0 2.5h1.25v12.5a2.5 2.5 0 0 0 2.5 2.5H10a2.5 2.5 0 0 0 2.5-2.5V30h15v2.5A2.5 2.5 0 0 0 30 35h3.75a2.5 2.5 0 0 0 2.5-2.5V20h1.25a1.25 1.25 0 0 0 0-2.5ZM10.812 8.75h18.376l3.889 8.75H6.923l3.89-8.75ZM33.75 32.5H30v-3.75a1.25 1.25 0 0 0-1.25-1.25h-17.5A1.25 1.25 0 0 0 10 28.75v3.75H6.25V20h27.5v12.5Z" fill="#40DDB6"/>
  <path d="M67.976 25.024h-6.288L60.68 28h-4.296l6.096-16.848h4.752L73.328 28h-4.344l-1.008-2.976Zm-1.056-3.168-2.088-6.168-2.064 6.168h4.152Zm21.487-7.248V28h-4.104v-1.824c-.416.592-.984 1.072-1.704 1.44-.704.352-1.488.528-2.352.528-1.024 0-1.928-.224-2.712-.672-.784-.464-1.392-1.128-1.824-1.992-.432-.864-.648-1.88-.648-3.048v-7.824h4.08v7.272c0 .896.232 1.592.696 2.088.464.496 1.088.744 1.872.744.8 0 1.432-.248 1.896-.744.464-.496.696-1.192.696-2.088v-7.272h4.104ZM98.82 24.52V28h-2.088c-1.488 0-2.648-.36-3.48-1.08-.832-.736-1.248-1.928-1.248-3.576v-5.328h-1.632v-3.408h1.632v-3.264h4.104v3.264h2.688v3.408h-2.688v5.376c0 .4.096.688.288.864.192.176.512.264.96.264h1.464Zm8.382 3.672c-1.312 0-2.496-.28-3.552-.84a6.253 6.253 0 0 1-2.472-2.4c-.592-1.04-.888-2.256-.888-3.648 0-1.376.304-2.584.912-3.624a6.166 6.166 0 0 1 2.496-2.424c1.056-.56 2.24-.84 3.552-.84 1.312 0 2.496.28 3.552.84a6.166 6.166 0 0 1 2.496 2.424c.608 1.04.912 2.248.912 3.624s-.312 2.592-.936 3.648a6.172 6.172 0 0 1-2.52 2.4c-1.056.56-2.24.84-3.552.84Zm0-3.552c.784 0 1.448-.288 1.992-.864.56-.576.84-1.4.84-2.472s-.272-1.896-.816-2.472a2.561 2.561 0 0 0-1.968-.864c-.8 0-1.464.288-1.992.864-.528.56-.792 1.384-.792 2.472 0 1.072.256 1.896.768 2.472a2.561 2.561 0 0 0 1.968.864Zm13.289-13.488V28h-4.104V11.152h4.104Zm11.135 3.312c1.568 0 2.816.512 3.744 1.536.944 1.008 1.416 2.4 1.416 4.176V28h-4.08v-7.272c0-.896-.232-1.592-.696-2.088-.464-.496-1.088-.744-1.872-.744s-1.408.248-1.872.744c-.464.496-.696 1.192-.696 2.088V28h-4.104V14.608h4.104v1.776c.416-.592.976-1.056 1.68-1.392.704-.352 1.496-.528 2.376-.528Zm13.459 13.728c-1.168 0-2.208-.2-3.12-.6-.912-.4-1.632-.944-2.16-1.632a4.386 4.386 0 0 1-.888-2.352h4.056c.048.464.264.84.648 1.128.384.288.856.432 1.416.432.512 0 .904-.096 1.176-.288.288-.208.432-.472.432-.792 0-.384-.2-.664-.6-.84-.4-.192-1.048-.4-1.944-.624-.96-.224-1.76-.456-2.4-.696a4.309 4.309 0 0 1-1.656-1.176c-.464-.544-.696-1.272-.696-2.184 0-.768.208-1.464.624-2.088.432-.64 1.056-1.144 1.872-1.512.832-.368 1.816-.552 2.952-.552 1.68 0 3 .416 3.96 1.248.976.832 1.536 1.936 1.68 3.312h-3.792a1.617 1.617 0 0 0-.624-1.104c-.336-.272-.784-.408-1.344-.408-.48 0-.848.096-1.104.288a.851.851 0 0 0-.384.744c0 .384.2.672.6.864.416.192 1.056.384 1.92.576.992.256 1.8.512 2.424.768.624.24 1.168.64 1.632 1.2.48.544.728 1.28.744 2.208 0 .784-.224 1.488-.672 2.112-.432.608-1.064 1.088-1.896 1.44-.816.352-1.768.528-2.856.528Zm21.159-13.584V28h-4.104v-1.824c-.416.592-.984 1.072-1.704 1.44-.704.352-1.488.528-2.352.528-1.024 0-1.928-.224-2.712-.672-.784-.464-1.392-1.128-1.824-1.992-.432-.864-.648-1.88-.648-3.048v-7.824h4.08v7.272c0 .896.232 1.592.696 2.088.464.496 1.088.744 1.872.744.8 0 1.432-.248 1.896-.744.464-.496.696-1.192.696-2.088v-7.272h4.104Zm7.052 2.232a5.3 5.3 0 0 1 1.8-1.728 4.576 4.576 0 0 1 2.4-.648v4.344h-1.128c-1.024 0-1.792.224-2.304.672-.512.432-.768 1.2-.768 2.304V28h-4.104V14.608h4.104v2.232Zm18.786 4.248c0 .384-.024.784-.072 1.2h-9.288c.064.832.328 1.472.792 1.92.48.432 1.064.648 1.752.648 1.024 0 1.736-.432 2.136-1.296h4.368a5.916 5.916 0 0 1-1.224 2.376 5.958 5.958 0 0 1-2.184 1.656c-.88.4-1.864.6-2.952.6-1.312 0-2.48-.28-3.504-.84a5.975 5.975 0 0 1-2.4-2.4c-.576-1.04-.864-2.256-.864-3.648 0-1.392.28-2.608.84-3.648a5.975 5.975 0 0 1 2.4-2.4c1.024-.56 2.2-.84 3.528-.84 1.296 0 2.448.272 3.456.816a5.781 5.781 0 0 1 2.352 2.328c.576 1.008.864 2.184.864 3.528Zm-4.2-1.08c0-.704-.24-1.264-.72-1.68-.48-.416-1.08-.624-1.8-.624-.688 0-1.272.2-1.752.6-.464.4-.752.968-.864 1.704h5.136Zm23.244-3.96c0 1.44-.472 2.6-1.416 3.48-.944.88-2.36 1.32-4.248 1.32h-3.384V28h-1.68V11.224h5.064c1.872 0 3.28.44 4.224 1.32.96.88 1.44 2.048 1.44 3.504Zm-5.664 3.36c2.624 0 3.936-1.12 3.936-3.36 0-1.12-.312-1.968-.936-2.544-.624-.576-1.624-.864-3-.864h-3.384v6.768h3.384Zm10.162-2.184a4.124 4.124 0 0 1 1.68-1.896c.768-.448 1.704-.672 2.808-.672v1.752h-.456c-1.216 0-2.192.328-2.928.984-.736.656-1.104 1.752-1.104 3.288V28h-1.68V14.896h1.68v2.328Zm12.752 10.968c-1.232 0-2.344-.272-3.336-.816a6.202 6.202 0 0 1-2.328-2.352c-.56-1.024-.84-2.216-.84-3.576 0-1.36.288-2.544.864-3.552.576-1.024 1.36-1.808 2.352-2.352.992-.56 2.104-.84 3.336-.84 1.232 0 2.344.28 3.336.84a5.743 5.743 0 0 1 2.352 2.352c.576 1.008.864 2.192.864 3.552 0 1.344-.288 2.528-.864 3.552a6.059 6.059 0 0 1-2.376 2.376c-1.008.544-2.128.816-3.36.816Zm0-1.464a5.11 5.11 0 0 0 2.4-.576c.736-.4 1.328-.992 1.776-1.776.464-.8.696-1.776.696-2.928s-.224-2.12-.672-2.904c-.448-.8-1.04-1.392-1.776-1.776-.736-.4-1.536-.6-2.4-.6-.864 0-1.664.2-2.4.6-.736.384-1.328.976-1.776 1.776-.432.784-.648 1.752-.648 2.904s.216 2.128.648 2.928c.448.784 1.032 1.376 1.752 1.776a5.11 5.11 0 0 0 2.4.576Zm11.846-10.416v8.136c0 .8.152 1.352.456 1.656.304.304.84.456 1.608.456h1.536V28h-1.8c-1.184 0-2.064-.272-2.64-.816-.576-.56-.864-1.472-.864-2.736v-8.136h-1.824v-1.416h1.824v-3.288h1.704v3.288h3.6v1.416h-3.6Zm18.227 4.464c0 .576-.016 1.016-.048 1.32h-10.872c.048.992.288 1.84.72 2.544s1 1.24 1.704 1.608a5.08 5.08 0 0 0 2.304.528c1.088 0 2-.264 2.736-.792a3.701 3.701 0 0 0 1.488-2.136h1.776c-.32 1.28-1.008 2.328-2.064 3.144-1.04.8-2.352 1.2-3.936 1.2-1.232 0-2.336-.272-3.312-.816a6.031 6.031 0 0 1-2.304-2.352c-.544-1.024-.816-2.216-.816-3.576 0-1.36.272-2.552.816-3.576.544-1.024 1.304-1.808 2.28-2.352.976-.544 2.088-.816 3.336-.816 1.248 0 2.336.272 3.264.816a5.511 5.511 0 0 1 2.16 2.208c.512.912.768 1.928.768 3.048Zm-1.704-.048c.016-.976-.184-1.808-.6-2.496a3.893 3.893 0 0 0-1.656-1.56 5.08 5.08 0 0 0-2.304-.528c-1.248 0-2.312.4-3.192 1.2-.88.8-1.368 1.928-1.464 3.384h9.216Zm4.01.72c0-1.36.272-2.544.816-3.552.544-1.024 1.296-1.808 2.256-2.352.96-.56 2.056-.84 3.288-.84 1.616 0 2.944.4 3.984 1.2 1.056.8 1.736 1.888 2.04 3.264h-1.8c-.224-.944-.712-1.68-1.464-2.208-.736-.544-1.656-.816-2.76-.816-.88 0-1.672.2-2.376.6-.704.4-1.264 1-1.68 1.8-.4.784-.6 1.752-.6 2.904s.2 2.128.6 2.928c.416.8.976 1.4 1.68 1.8.704.4 1.496.6 2.376.6 1.104 0 2.024-.264 2.76-.792.752-.544 1.24-1.296 1.464-2.256h1.8c-.304 1.344-.984 2.424-2.04 3.24-1.056.816-2.384 1.224-3.984 1.224-1.232 0-2.328-.272-3.288-.816a5.915 5.915 0 0 1-2.256-2.352c-.544-1.024-.816-2.216-.816-3.576Zm17.67-5.136v8.136c0 .8.152 1.352.456 1.656.304.304.84.456 1.608.456h1.536V28h-1.8c-1.184 0-2.064-.272-2.64-.816-.576-.56-.864-1.472-.864-2.736v-8.136h-1.824v-1.416h1.824v-3.288h1.704v3.288h3.6v1.416h-3.6Zm7.211-3.888c-.336 0-.624-.12-.864-.36s-.36-.536-.36-.888.12-.64.36-.864c.24-.24.528-.36.864-.36.336 0 .624.12.864.36.24.224.36.512.36.864s-.12.648-.36.888-.528.36-.864.36Zm.84 2.472V28h-1.68V14.896h1.68Zm9.54 13.296c-1.232 0-2.344-.272-3.336-.816a6.202 6.202 0 0 1-2.328-2.352c-.56-1.024-.84-2.216-.84-3.576 0-1.36.288-2.544.864-3.552.576-1.024 1.36-1.808 2.352-2.352.992-.56 2.104-.84 3.336-.84 1.232 0 2.344.28 3.336.84a5.743 5.743 0 0 1 2.352 2.352c.576 1.008.864 2.192.864 3.552 0 1.344-.288 2.528-.864 3.552a6.059 6.059 0 0 1-2.376 2.376c-1.008.544-2.128.816-3.36.816Zm0-1.464a5.11 5.11 0 0 0 2.4-.576c.736-.4 1.328-.992 1.776-1.776.464-.8.696-1.776.696-2.928s-.224-2.12-.672-2.904c-.448-.8-1.04-1.392-1.776-1.776-.736-.4-1.536-.6-2.4-.6-.864 0-1.664.2-2.4.6-.736.384-1.328.976-1.776 1.776-.432.784-.648 1.752-.648 2.904s.216 2.128.648 2.928c.448.784 1.032 1.376 1.752 1.776a5.11 5.11 0 0 0 2.4.576Zm15.807-12.072c1.568 0 2.848.488 3.84 1.464.992.96 1.488 2.36 1.488 4.2V28h-1.656v-7.488c0-1.424-.36-2.512-1.08-3.264-.704-.752-1.672-1.128-2.904-1.128-1.264 0-2.272.4-3.024 1.2-.752.8-1.128 1.976-1.128 3.528V28h-1.68V14.896h1.68v2.232a4.217 4.217 0 0 1 1.8-1.824c.784-.432 1.672-.648 2.664-.648Z" fill="#6B78E5"/>
</svg>
