<svg width="319" height="40" viewBox="0 0 319 40" fill="none" xmlns="http://www.w3.org/2000/svg">
<path opacity="0.2" d="M35 18.75H5L9.67031 8.24219C9.76853 8.02127 9.9287 7.83358 10.1314 7.70185C10.3342 7.57012 10.5707 7.5 10.8125 7.5H29.1875C29.4293 7.5 29.6658 7.57012 29.8686 7.70185C30.0713 7.83358 30.2315 8.02127 30.3297 8.24219L35 18.75Z" fill="#40DDB6"/>
<path d="M37.5 17.5H35.8125L31.4719 7.73438C31.2754 7.29254 30.9551 6.91716 30.5496 6.65369C30.1442 6.39023 29.671 6.25001 29.1875 6.25H10.8125C10.329 6.25001 9.85581 6.39023 9.45036 6.65369C9.04491 6.91716 8.72456 7.29254 8.52813 7.73438L4.1875 17.5H2.5C2.16848 17.5 1.85054 17.6317 1.61612 17.8661C1.3817 18.1005 1.25 18.4185 1.25 18.75C1.25 19.0815 1.3817 19.3995 1.61612 19.6339C1.85054 19.8683 2.16848 20 2.5 20H3.75V32.5C3.75 33.163 4.01339 33.7989 4.48223 34.2678C4.95107 34.7366 5.58696 35 6.25 35H10C10.663 35 11.2989 34.7366 11.7678 34.2678C12.2366 33.7989 12.5 33.163 12.5 32.5V30H27.5V32.5C27.5 33.163 27.7634 33.7989 28.2322 34.2678C28.7011 34.7366 29.337 35 30 35H33.75C34.413 35 35.0489 34.7366 35.5178 34.2678C35.9866 33.7989 36.25 33.163 36.25 32.5V20H37.5C37.8315 20 38.1495 19.8683 38.3839 19.6339C38.6183 19.3995 38.75 19.0815 38.75 18.75C38.75 18.4185 38.6183 18.1005 38.3839 17.8661C38.1495 17.6317 37.8315 17.5 37.5 17.5ZM10.8125 8.75H29.1875L33.0766 17.5H6.92344L10.8125 8.75ZM33.75 32.5H30V28.75C30 28.4185 29.8683 28.1005 29.6339 27.8661C29.3995 27.6317 29.0815 27.5 28.75 27.5H11.25C10.9185 27.5 10.6005 27.6317 10.3661 27.8661C10.1317 28.1005 10 28.4185 10 28.75V32.5H6.25V20H33.75V32.5Z" fill="#40DDB6"/>
<path d="M67.976 25.024H61.688L60.68 28H56.384L62.48 11.152H67.232L73.328 28H68.984L67.976 25.024ZM66.92 21.856L64.832 15.688L62.768 21.856H66.92ZM88.4073 14.608V28H84.3033V26.176C83.8873 26.768 83.3193 27.248 82.5993 27.616C81.8953 27.968 81.1113 28.144 80.2473 28.144C79.2233 28.144 78.3193 27.92 77.5353 27.472C76.7513 27.008 76.1433 26.344 75.7113 25.48C75.2793 24.616 75.0633 23.6 75.0633 22.432V14.608H79.1433V21.88C79.1433 22.776 79.3753 23.472 79.8393 23.968C80.3033 24.464 80.9273 24.712 81.7113 24.712C82.5113 24.712 83.1433 24.464 83.6073 23.968C84.0713 23.472 84.3033 22.776 84.3033 21.88V14.608H88.4073ZM98.8192 24.52V28H96.7312C95.2432 28 94.0832 27.64 93.2512 26.92C92.4192 26.184 92.0032 24.992 92.0032 23.344V18.016H90.3712V14.608H92.0032V11.344H96.1072V14.608H98.7952V18.016H96.1072V23.392C96.1072 23.792 96.2032 24.08 96.3952 24.256C96.5872 24.432 96.9072 24.52 97.3552 24.52H98.8192ZM107.201 28.192C105.889 28.192 104.705 27.912 103.649 27.352C102.609 26.792 101.785 25.992 101.177 24.952C100.585 23.912 100.289 22.696 100.289 21.304C100.289 19.928 100.593 18.72 101.201 17.68C101.809 16.624 102.641 15.816 103.697 15.256C104.753 14.696 105.937 14.416 107.249 14.416C108.561 14.416 109.745 14.696 110.801 15.256C111.857 15.816 112.689 16.624 113.297 17.68C113.905 18.72 114.209 19.928 114.209 21.304C114.209 22.68 113.897 23.896 113.273 24.952C112.665 25.992 111.825 26.792 110.753 27.352C109.697 27.912 108.513 28.192 107.201 28.192ZM107.201 24.64C107.985 24.64 108.649 24.352 109.193 23.776C109.753 23.2 110.033 22.376 110.033 21.304C110.033 20.232 109.761 19.408 109.217 18.832C108.689 18.256 108.033 17.968 107.249 17.968C106.449 17.968 105.785 18.256 105.257 18.832C104.729 19.392 104.465 20.216 104.465 21.304C104.465 22.376 104.721 23.2 105.233 23.776C105.761 24.352 106.417 24.64 107.201 24.64ZM120.49 11.152V28H116.386V11.152H120.49ZM131.625 14.464C133.193 14.464 134.441 14.976 135.369 16C136.313 17.008 136.785 18.4 136.785 20.176V28H132.705V20.728C132.705 19.832 132.473 19.136 132.009 18.64C131.545 18.144 130.921 17.896 130.137 17.896C129.353 17.896 128.729 18.144 128.265 18.64C127.801 19.136 127.569 19.832 127.569 20.728V28H123.465V14.608H127.569V16.384C127.985 15.792 128.545 15.328 129.249 14.992C129.953 14.64 130.745 14.464 131.625 14.464ZM145.084 28.192C143.916 28.192 142.876 27.992 141.964 27.592C141.052 27.192 140.332 26.648 139.804 25.96C139.276 25.256 138.98 24.472 138.916 23.608H142.972C143.02 24.072 143.236 24.448 143.62 24.736C144.004 25.024 144.476 25.168 145.036 25.168C145.548 25.168 145.94 25.072 146.212 24.88C146.5 24.672 146.644 24.408 146.644 24.088C146.644 23.704 146.444 23.424 146.044 23.248C145.644 23.056 144.996 22.848 144.1 22.624C143.14 22.4 142.34 22.168 141.7 21.928C141.06 21.672 140.508 21.28 140.044 20.752C139.58 20.208 139.348 19.48 139.348 18.568C139.348 17.8 139.556 17.104 139.972 16.48C140.404 15.84 141.028 15.336 141.844 14.968C142.676 14.6 143.66 14.416 144.796 14.416C146.476 14.416 147.796 14.832 148.756 15.664C149.732 16.496 150.292 17.6 150.436 18.976H146.644C146.58 18.512 146.372 18.144 146.02 17.872C145.684 17.6 145.236 17.464 144.676 17.464C144.196 17.464 143.828 17.56 143.572 17.752C143.316 17.928 143.188 18.176 143.188 18.496C143.188 18.88 143.388 19.168 143.788 19.36C144.204 19.552 144.844 19.744 145.708 19.936C146.7 20.192 147.508 20.448 148.132 20.704C148.756 20.944 149.3 21.344 149.764 21.904C150.244 22.448 150.492 23.184 150.508 24.112C150.508 24.896 150.284 25.6 149.836 26.224C149.404 26.832 148.772 27.312 147.94 27.664C147.124 28.016 146.172 28.192 145.084 28.192ZM166.243 14.608V28H162.139V26.176C161.723 26.768 161.155 27.248 160.435 27.616C159.731 27.968 158.947 28.144 158.083 28.144C157.059 28.144 156.155 27.92 155.371 27.472C154.587 27.008 153.979 26.344 153.547 25.48C153.115 24.616 152.899 23.6 152.899 22.432V14.608H156.979V21.88C156.979 22.776 157.211 23.472 157.675 23.968C158.139 24.464 158.763 24.712 159.547 24.712C160.347 24.712 160.979 24.464 161.443 23.968C161.907 23.472 162.139 22.776 162.139 21.88V14.608H166.243ZM173.295 16.84C173.775 16.104 174.375 15.528 175.095 15.112C175.815 14.68 176.615 14.464 177.495 14.464V18.808H176.367C175.343 18.808 174.575 19.032 174.063 19.48C173.551 19.912 173.295 20.68 173.295 21.784V28H169.191V14.608H173.295V16.84ZM192.081 21.088C192.081 21.472 192.057 21.872 192.009 22.288H182.721C182.785 23.12 183.049 23.76 183.513 24.208C183.993 24.64 184.577 24.856 185.265 24.856C186.289 24.856 187.001 24.424 187.401 23.56H191.769C191.545 24.44 191.137 25.232 190.545 25.936C189.969 26.64 189.241 27.192 188.361 27.592C187.481 27.992 186.497 28.192 185.409 28.192C184.097 28.192 182.929 27.912 181.905 27.352C180.881 26.792 180.081 25.992 179.505 24.952C178.929 23.912 178.641 22.696 178.641 21.304C178.641 19.912 178.921 18.696 179.481 17.656C180.057 16.616 180.857 15.816 181.881 15.256C182.905 14.696 184.081 14.416 185.409 14.416C186.705 14.416 187.857 14.688 188.865 15.232C189.873 15.776 190.657 16.552 191.217 17.56C191.793 18.568 192.081 19.744 192.081 21.088ZM187.881 20.008C187.881 19.304 187.641 18.744 187.161 18.328C186.681 17.912 186.081 17.704 185.361 17.704C184.673 17.704 184.089 17.904 183.609 18.304C183.145 18.704 182.857 19.272 182.745 20.008H187.881ZM211.125 16.048C211.125 17.488 210.653 18.648 209.709 19.528C208.765 20.408 207.349 20.848 205.461 20.848H202.077V28H200.397V11.224H205.461C207.333 11.224 208.741 11.664 209.685 12.544C210.645 13.424 211.125 14.592 211.125 16.048ZM205.461 19.408C208.085 19.408 209.397 18.288 209.397 16.048C209.397 14.928 209.085 14.08 208.461 13.504C207.837 12.928 206.837 12.64 205.461 12.64H202.077V19.408H205.461ZM215.623 17.224C215.991 16.408 216.551 15.776 217.303 15.328C218.071 14.88 219.007 14.656 220.111 14.656V16.408H219.655C218.439 16.408 217.463 16.736 216.727 17.392C215.991 18.048 215.623 19.144 215.623 20.68V28H213.943V14.896H215.623V17.224ZM228.375 28.192C227.143 28.192 226.031 27.92 225.039 27.376C224.063 26.816 223.287 26.032 222.711 25.024C222.151 24 221.871 22.808 221.871 21.448C221.871 20.088 222.159 18.904 222.735 17.896C223.311 16.872 224.095 16.088 225.087 15.544C226.079 14.984 227.191 14.704 228.423 14.704C229.655 14.704 230.767 14.984 231.759 15.544C232.767 16.088 233.551 16.872 234.111 17.896C234.687 18.904 234.975 20.088 234.975 21.448C234.975 22.792 234.687 23.976 234.111 25C233.535 26.024 232.743 26.816 231.735 27.376C230.727 27.92 229.607 28.192 228.375 28.192ZM228.375 26.728C229.239 26.728 230.039 26.536 230.775 26.152C231.511 25.752 232.103 25.16 232.551 24.376C233.015 23.576 233.247 22.6 233.247 21.448C233.247 20.296 233.023 19.328 232.575 18.544C232.127 17.744 231.535 17.152 230.799 16.768C230.063 16.368 229.263 16.168 228.399 16.168C227.535 16.168 226.735 16.368 225.999 16.768C225.263 17.152 224.671 17.744 224.223 18.544C223.791 19.328 223.575 20.296 223.575 21.448C223.575 22.6 223.791 23.576 224.223 24.376C224.671 25.16 225.255 25.752 225.975 26.152C226.711 26.536 227.511 26.728 228.375 26.728ZM240.221 16.312V24.448C240.221 25.248 240.373 25.8 240.677 26.104C240.981 26.408 241.517 26.56 242.285 26.56H243.821V28H242.021C240.837 28 239.957 27.728 239.381 27.184C238.805 26.624 238.517 25.712 238.517 24.448V16.312H236.693V14.896H238.517V11.608H240.221V14.896H243.821V16.312H240.221ZM258.448 20.776C258.448 21.352 258.432 21.792 258.4 22.096H247.528C247.576 23.088 247.816 23.936 248.248 24.64C248.68 25.344 249.248 25.88 249.952 26.248C250.656 26.6 251.424 26.776 252.256 26.776C253.344 26.776 254.256 26.512 254.992 25.984C255.744 25.456 256.24 24.744 256.48 23.848H258.256C257.936 25.128 257.248 26.176 256.192 26.992C255.152 27.792 253.84 28.192 252.256 28.192C251.024 28.192 249.92 27.92 248.944 27.376C247.968 26.816 247.2 26.032 246.64 25.024C246.096 24 245.824 22.808 245.824 21.448C245.824 20.088 246.096 18.896 246.64 17.872C247.184 16.848 247.944 16.064 248.92 15.52C249.896 14.976 251.008 14.704 252.256 14.704C253.504 14.704 254.592 14.976 255.52 15.52C256.464 16.064 257.184 16.8 257.68 17.728C258.192 18.64 258.448 19.656 258.448 20.776ZM256.744 20.728C256.76 19.752 256.56 18.92 256.144 18.232C255.744 17.544 255.192 17.024 254.488 16.672C253.784 16.32 253.016 16.144 252.184 16.144C250.936 16.144 249.872 16.544 248.992 17.344C248.112 18.144 247.624 19.272 247.528 20.728H256.744ZM260.754 21.448C260.754 20.088 261.026 18.904 261.57 17.896C262.114 16.872 262.866 16.088 263.826 15.544C264.786 14.984 265.882 14.704 267.114 14.704C268.73 14.704 270.058 15.104 271.098 15.904C272.154 16.704 272.834 17.792 273.138 19.168H271.338C271.114 18.224 270.626 17.488 269.874 16.96C269.138 16.416 268.218 16.144 267.114 16.144C266.234 16.144 265.442 16.344 264.738 16.744C264.034 17.144 263.474 17.744 263.058 18.544C262.658 19.328 262.458 20.296 262.458 21.448C262.458 22.6 262.658 23.576 263.058 24.376C263.474 25.176 264.034 25.776 264.738 26.176C265.442 26.576 266.234 26.776 267.114 26.776C268.218 26.776 269.138 26.512 269.874 25.984C270.626 25.44 271.114 24.688 271.338 23.728H273.138C272.834 25.072 272.154 26.152 271.098 26.968C270.042 27.784 268.714 28.192 267.114 28.192C265.882 28.192 264.786 27.92 263.826 27.376C262.866 26.816 262.114 26.032 261.57 25.024C261.026 24 260.754 22.808 260.754 21.448ZM278.424 16.312V24.448C278.424 25.248 278.576 25.8 278.88 26.104C279.184 26.408 279.72 26.56 280.488 26.56H282.024V28H280.224C279.04 28 278.16 27.728 277.584 27.184C277.008 26.624 276.72 25.712 276.72 24.448V16.312H274.896V14.896H276.72V11.608H278.424V14.896H282.024V16.312H278.424ZM285.635 12.424C285.299 12.424 285.011 12.304 284.771 12.064C284.531 11.824 284.411 11.528 284.411 11.176C284.411 10.824 284.531 10.536 284.771 10.312C285.011 10.072 285.299 9.952 285.635 9.952C285.971 9.952 286.259 10.072 286.499 10.312C286.739 10.536 286.859 10.824 286.859 11.176C286.859 11.528 286.739 11.824 286.499 12.064C286.259 12.304 285.971 12.424 285.635 12.424ZM286.475 14.896V28H284.795V14.896H286.475ZM296.015 28.192C294.783 28.192 293.671 27.92 292.679 27.376C291.703 26.816 290.927 26.032 290.351 25.024C289.791 24 289.511 22.808 289.511 21.448C289.511 20.088 289.799 18.904 290.375 17.896C290.951 16.872 291.735 16.088 292.727 15.544C293.719 14.984 294.831 14.704 296.063 14.704C297.295 14.704 298.407 14.984 299.399 15.544C300.407 16.088 301.191 16.872 301.751 17.896C302.327 18.904 302.615 20.088 302.615 21.448C302.615 22.792 302.327 23.976 301.751 25C301.175 26.024 300.383 26.816 299.375 27.376C298.367 27.92 297.247 28.192 296.015 28.192ZM296.015 26.728C296.879 26.728 297.679 26.536 298.415 26.152C299.151 25.752 299.743 25.16 300.191 24.376C300.655 23.576 300.887 22.6 300.887 21.448C300.887 20.296 300.663 19.328 300.215 18.544C299.767 17.744 299.175 17.152 298.439 16.768C297.703 16.368 296.903 16.168 296.039 16.168C295.175 16.168 294.375 16.368 293.639 16.768C292.903 17.152 292.311 17.744 291.863 18.544C291.431 19.328 291.215 20.296 291.215 21.448C291.215 22.6 291.431 23.576 291.863 24.376C292.311 25.16 292.895 25.752 293.615 26.152C294.351 26.536 295.151 26.728 296.015 26.728ZM311.822 14.656C313.39 14.656 314.67 15.144 315.662 16.12C316.654 17.08 317.15 18.48 317.15 20.32V28H315.494V20.512C315.494 19.088 315.134 18 314.414 17.248C313.71 16.496 312.742 16.12 311.51 16.12C310.246 16.12 309.238 16.52 308.486 17.32C307.734 18.12 307.358 19.296 307.358 20.848V28H305.678V14.896H307.358V17.128C307.774 16.328 308.374 15.72 309.158 15.304C309.942 14.872 310.83 14.656 311.822 14.656Z" fill="#6B78E5"/>
</svg>
