<svg width="29" height="22" fill="none" xmlns="http://www.w3.org/2000/svg">
  <path d="M18.439.647c-.318.021-.632.13-.976.313-1.543.82-7.137 4.004-7.146 4.009a1.69 1.69 0 0 0-.592 2.3 1.68 1.68 0 0 0 2.16.662c.08-.039 2.794-1.429 4.044-2.09 1.333-.707 2.161.104 2.161.104s4.815 4.801 6.17 6.1c.88.845 2.087.43 2.474.383.388-.048 2.266-.418 2.266-.418V3.226s-2.876.67-4.566 1.01c-.519.105-1.15-.243-1.15-.243s-1.403-1.198-2.963-2.51c-.789-.666-1.35-.876-1.882-.836Zm-7.53.104c-1.777 0-5.472 2.44-5.472 2.44s-1.045.675-2.544.07L0 2.25v10.039s.828.257 1.569.557c.17-.475.426-.928.801-1.29 1.229-1.171 3.272-1.185 4.392-.034.336.348.575.797.697 1.254.453.14.854.358 1.185.698.34.348.575.762.697 1.22a2.8 2.8 0 0 1 1.185.731c.37.384.615.859.732 1.36.471.14.911.379 1.255.732.671.688.91 1.638.767 2.544 0 0 .405.475.662.732a1.289 1.289 0 0 0 1.813 0 1.289 1.289 0 0 0 0-1.812c-.018-.018-1.839-1.856-1.673-2.022.165-.165 2.47 2.227 2.474 2.23a1.257 1.257 0 0 0 1.813-1.743c-.009-.008-2.083-2.238-1.952-2.37.148-.147 2.645 2.44 2.65 2.44.5.463 1.289.454 1.777-.034s.466-1.277 0-1.778c-.005-.004-2.048-2.204-1.917-2.335.13-.13 2.261 1.982 2.265 1.987a1.247 1.247 0 0 0 1.778 0 1.289 1.289 0 0 0 0-1.813c-.009-.008-2.78-2.74-5.577-5.542 0 0-.81-.871-1.917-.383-.776.34-1.79.832-2.545 1.185-.827.436-1.56.558-1.707.558A2.889 2.889 0 0 1 8.33 6.468c0-1.037.54-1.961 1.359-2.475 1.155-.802 3.834-2.196 3.834-2.196S12.688.75 10.91.75ZM4.602 12.01a1.879 1.879 0 0 0-1.255.523c-.714.688-1.198 1.956-.558 2.683.637.728 1.39.266 1.952.14-.156.553-.644 1.089-.07 1.812.571.728 1.39.266 1.953.14-.157.553-.623 1.137-.07 1.812.553.675 1.49.292 2.091.105-.23.597-.74 1.263-.104 1.986.636.724 2.104.375 2.823-.313.715-.684.771-1.787.14-2.44-.436-.444-1.077-.536-1.674-.349.236-.597.17-1.285-.279-1.742-.4-.414-1.006-.51-1.568-.384.157-.553.091-1.15-.314-1.568-.4-.41-1.006-.51-1.568-.384.157-.553.087-1.15-.314-1.568-.318-.327-.74-.466-1.185-.453Z" fill="#40DDB6"/>
</svg>
