<svg width="22" height="24" fill="none" xmlns="http://www.w3.org/2000/svg">
  <path d="M12.251 1.163c.98 1.63-.13 3.669-.958 5.446-.715 1.53-.606 3.264 1.307 3.042 2.305-.266 3.237-.45 5.198-.584 1.982-.135 2.605.675 2.605 1.429 0 1.215-.405 1.307-.405 1.773 0 .466 1.52.166 1.52 1.695 0 1.53-1.189 1.481-1.189 1.908 0 .427 1.16.62 1.16 1.843 0 1.225-1.56 1.386-1.56 1.891 0 .506.505.636.505 1.395 0 .758-1.582 2.422-7.159 2.422-9.502 0-8.378-2.274-12.814-2.274v-8.414c2.31 0 2.183-2.043 3.778-3.603 1.608-1.573 4.684-5.137 5.29-7.947.4-1.882 2.121-1.028 2.722-.022Z" fill="#40DDB6"/>
</svg>
