<svg width="29" height="22" viewBox="0 0 29 22" fill="none" xmlns="http://www.w3.org/2000/svg">
<path d="M18.4387 0.646635C18.1206 0.66842 17.8069 0.777345 17.4627 0.960337C15.9204 1.77945 10.326 4.96439 10.3173 4.96875C9.52434 5.43495 9.25856 6.47626 9.72476 7.26923C10.1648 8.01863 11.1146 8.29748 11.8858 7.93149C11.9642 7.89228 14.6786 6.5024 15.9291 5.84015C17.2623 5.13432 18.0901 5.94471 18.0901 5.94471C18.0901 5.94471 22.9046 10.7461 24.2596 12.0445C25.1397 12.8897 26.3466 12.4758 26.7344 12.4279C27.1221 12.38 29 12.0096 29 12.0096V3.22596C29 3.22596 26.1244 3.89694 24.4339 4.23678C23.9154 4.34135 23.2837 3.99279 23.2837 3.99279C23.2837 3.99279 21.8807 2.79462 20.3209 1.48317C19.5323 0.816557 18.9703 0.607423 18.4387 0.646635ZM10.9099 0.751203C9.13221 0.751203 5.4375 3.19111 5.4375 3.19111C5.4375 3.19111 4.39183 3.86644 2.89303 3.26082L0 2.25V12.2885C0 12.2885 0.827825 12.5455 1.56851 12.8462C1.73843 12.3712 1.99549 11.9181 2.37019 11.5565C3.59886 10.3845 5.64228 10.3714 6.76202 11.5216C7.09751 11.8702 7.33714 12.319 7.45913 12.7764C7.91226 12.9159 8.3131 13.1337 8.64423 13.4736C8.98407 13.8221 9.21935 14.236 9.34135 14.6935C9.79447 14.8329 10.1953 15.0856 10.5264 15.4255C10.8968 15.8089 11.1408 16.2838 11.2584 16.7849C11.729 16.9243 12.169 17.1639 12.5132 17.5168C13.1842 18.2052 13.4238 19.1551 13.28 20.0613C13.28 20.0613 13.6852 20.5362 13.9423 20.7933C14.439 21.29 15.2581 21.29 15.7548 20.7933C16.2515 20.2966 16.2515 19.4775 15.7548 18.9808C15.7374 18.9633 13.9162 17.1247 14.0817 16.9591C14.2473 16.7936 16.5521 19.1856 16.5565 19.1899C17.0488 19.6822 17.8418 19.6822 18.3341 19.1899C18.8134 18.7063 18.8265 17.9438 18.369 17.4471C18.3603 17.4384 16.2864 15.2076 16.4171 15.0769C16.5652 14.9288 19.0617 17.5168 19.0661 17.5168C19.5672 17.9787 20.3558 17.97 20.8438 17.482C21.3317 16.994 21.3099 16.2054 20.8438 15.7043C20.8394 15.7 18.796 13.4997 18.9267 13.369C19.0574 13.2383 21.188 15.3514 21.1923 15.3558C21.689 15.8525 22.4733 15.8525 22.97 15.3558C23.4666 14.8591 23.4666 14.04 22.97 13.5433C22.9612 13.5346 20.1902 10.8027 17.393 8.0012C17.393 8.0012 16.5826 7.12981 15.476 7.61779C14.7004 7.95763 13.6852 8.44997 12.9315 8.80289C12.1037 9.23858 11.3717 9.36058 11.2236 9.36058C9.62019 9.36058 8.33053 8.06656 8.33053 6.46755C8.33053 5.43059 8.87079 4.50691 9.6899 3.99279C10.8445 3.19111 13.524 1.79688 13.524 1.79688C13.524 1.79688 12.6875 0.751203 10.9099 0.751203ZM4.60096 12.0096C4.15655 12.0227 3.70343 12.1883 3.34615 12.5325C2.63161 13.2209 2.14799 14.4887 2.78846 15.2163C3.42458 15.944 4.17834 15.4821 4.74038 15.3558C4.58353 15.9091 4.09555 16.445 4.67067 17.1683C5.24144 17.8959 6.06055 17.434 6.6226 17.3077C6.46574 17.861 5.99955 18.4449 6.55288 19.1202C7.10622 19.7955 8.04297 19.4121 8.64423 19.2248C8.41331 19.8217 7.90355 20.4883 8.53966 21.2115C9.17578 21.9348 10.6441 21.5862 11.363 20.8978C12.0775 20.2138 12.1342 19.1115 11.5024 18.4579C11.0667 18.0135 10.4262 17.922 9.82933 18.1094C10.0646 17.5125 9.99925 16.8241 9.55048 16.3666C9.14964 15.9527 8.54402 15.8568 7.98197 15.9832C8.13882 15.4298 8.07347 14.8329 7.66827 14.4147C7.26743 14.0051 6.66181 13.9049 6.09976 14.0313C6.25661 13.4779 6.1869 12.881 5.78606 12.4627C5.468 12.136 5.04537 11.9965 4.60096 12.0096Z" fill="#40DDB6"/>
</svg>
