<svg width="162" height="152" viewBox="0 0 162 152" fill="none" xmlns="http://www.w3.org/2000/svg">
<circle cx="98" cy="98" r="98" fill="#40DDB6"></circle>
<path d="M136.475 114.388C134.153 113.586 131.729 113.119 129.275 113L114.275 102.913C109.309 99.6557 103.488 97.946 97.55 98H81.725C79.2611 97.9956 76.8204 98.4769 74.5426 99.4163C72.2648 100.356 70.1945 101.735 68.45 103.475L62.7125 109.25H56.75C54.7609 109.25 52.8532 110.04 51.4467 111.447C50.0402 112.853 49.25 114.761 49.25 116.75V135.5C49.25 137.489 50.0402 139.397 51.4467 140.803C52.8532 142.21 54.7609 143 56.75 143H64.925C65.7133 145.172 67.1511 147.048 69.0431 148.374C70.9351 149.7 73.1896 150.412 75.5 150.412C77.8104 150.412 80.0649 149.7 81.9569 148.374C83.8489 147.048 85.2867 145.172 86.075 143H109.925C110.713 145.172 112.151 147.048 114.043 148.374C115.935 149.7 118.19 150.412 120.5 150.412C122.81 150.412 125.065 149.7 126.957 148.374C128.849 147.048 130.287 145.172 131.075 143H139.25C141.239 143 143.147 142.21 144.553 140.803C145.96 139.397 146.75 137.489 146.75 135.5V128.6C146.745 125.453 145.75 122.386 143.906 119.836C142.062 117.285 139.462 115.379 136.475 114.388ZM75.5 143C74.7583 143 74.0333 142.78 73.4166 142.368C72.7999 141.956 72.3193 141.37 72.0355 140.685C71.7516 140 71.6774 139.246 71.8221 138.518C71.9667 137.791 72.3239 137.123 72.8484 136.598C73.3728 136.074 74.041 135.717 74.7684 135.572C75.4958 135.427 76.2498 135.502 76.9351 135.785C77.6203 136.069 78.206 136.55 78.618 137.167C79.0301 137.783 79.25 138.508 79.25 139.25C79.25 140.245 78.8549 141.198 78.1516 141.902C77.4484 142.605 76.4946 143 75.5 143ZM73.2875 113C72.2104 112.986 71.1442 112.783 70.1375 112.4L73.8875 108.65C75.9917 106.622 78.8025 105.492 81.725 105.5H97.55C101.991 105.49 106.336 106.795 110.037 109.25L115.625 113H73.2875ZM120.5 143C119.758 143 119.033 142.78 118.417 142.368C117.8 141.956 117.319 141.37 117.035 140.685C116.752 140 116.677 139.246 116.822 138.518C116.967 137.791 117.324 137.123 117.848 136.598C118.373 136.074 119.041 135.717 119.768 135.572C120.496 135.427 121.25 135.502 121.935 135.785C122.62 136.069 123.206 136.55 123.618 137.167C124.03 137.783 124.25 138.508 124.25 139.25C124.25 140.245 123.855 141.198 123.152 141.902C122.448 142.605 121.495 143 120.5 143ZM139.25 131.75H135.5C134.505 131.75 133.552 131.355 132.848 130.652C132.145 129.948 131.75 128.995 131.75 128C131.75 127.005 132.145 126.052 132.848 125.348C133.552 124.645 134.505 124.25 135.5 124.25H137.862C138.766 125.521 139.251 127.041 139.25 128.6V131.75Z" fill="white"></path>
<path d="M83 94.25C83.9213 94.2567 84.8128 93.9239 85.5044 93.3153C86.1961 92.7066 86.6395 91.8647 86.75 90.95C88.2536 89.5397 90.0223 88.4422 91.9536 87.7212C93.8848 87.0002 95.9401 86.6701 98 86.75C100.06 86.6701 102.115 87.0002 104.046 87.7212C105.978 88.4422 107.746 89.5397 109.25 90.95C109.31 91.9446 109.762 92.8747 110.507 93.5357C111.253 94.1968 112.23 94.5347 113.225 94.475C114.22 94.4153 115.15 93.963 115.811 93.2175C116.472 92.4721 116.81 91.4946 116.75 90.5C116.75 75.9125 116.75 56.225 101.75 50.3V49.25C101.75 48.2554 101.355 47.3016 100.652 46.5983C99.9484 45.8951 98.9946 45.5 98 45.5C97.0054 45.5 96.0516 45.8951 95.3484 46.5983C94.6451 47.3016 94.25 48.2554 94.25 49.25V50.3C79.25 56.225 79.25 75.9125 79.25 90.5C79.25 91.4946 79.6451 92.4484 80.3484 93.1516C81.0516 93.8549 82.0054 94.25 83 94.25Z" fill="white"></path>
<path d="M128 86.75C130.06 86.6701 132.115 87.0002 134.046 87.7212C135.977 88.4422 137.746 89.5397 139.25 90.95C139.309 91.9446 139.762 92.8747 140.507 93.5358C141.253 94.1968 142.23 94.5347 143.225 94.475C144.219 94.4154 145.149 93.963 145.811 93.2176C146.472 92.4721 146.809 91.4946 146.75 90.5C146.75 74 133.887 59 116.487 52.5875C123.5 62.375 124.25 76.4375 124.25 87.1625C125.481 86.8856 126.738 86.7472 128 86.75Z" fill="white"></path>
<path d="M53 94.25C53.9213 94.2567 54.8128 93.9239 55.5044 93.3153C56.1961 92.7066 56.6395 91.8647 56.75 90.95C58.2536 89.5397 60.0223 88.4422 61.9536 87.7212C63.8848 87.0002 65.9401 86.6701 68 86.75C69.2615 86.7472 70.5193 86.8856 71.75 87.1625C71.75 76.4375 72.5 62.375 79.5125 52.5875C62.1125 59 49.25 74 49.25 90.5C49.25 91.4946 49.6451 92.4484 50.3483 93.1517C51.0516 93.8549 52.0054 94.25 53 94.25Z" fill="white"></path>
</svg>
