<svg width="19" height="11" viewBox="0 0 19 11" fill="none" xmlns="http://www.w3.org/2000/svg">
<path d="M9.55707 0.166737C9.32326 0.165385 9.09149 0.2102 8.87504 0.29861C8.65858 0.38702 8.46171 0.517286 8.29571 0.68194L1.18946 7.78819C1.02382 7.95383 0.892425 8.15048 0.802779 8.3669C0.713133 8.58333 0.666992 8.81529 0.666992 9.04954C0.666992 9.2838 0.713133 9.51576 0.802779 9.73219C0.892425 9.94861 1.02382 10.1453 1.18946 10.3109C1.35511 10.4765 1.55176 10.6079 1.76818 10.6976C1.9846 10.7872 2.21657 10.8334 2.45082 10.8334C2.68508 10.8334 2.91704 10.7872 3.13347 10.6976C3.34989 10.6079 3.54654 10.4765 3.71218 10.3109L9.55707 4.43048L15.4197 10.0799C15.5832 10.2617 15.7823 10.4077 16.0048 10.509C16.2272 10.6102 16.4682 10.6645 16.7125 10.6683C16.9569 10.6722 17.1994 10.6256 17.425 10.5315C17.6505 10.4373 17.8542 10.2977 18.0233 10.1212C18.1924 9.94474 18.3233 9.73529 18.4078 9.50595C18.4922 9.27661 18.5285 9.0323 18.5142 8.78831C18.4999 8.54433 18.4355 8.30591 18.3249 8.08797C18.2143 7.87003 18.0599 7.67725 17.8714 7.5217L10.7651 0.664173C10.4402 0.350939 10.0083 0.17309 9.55707 0.166737Z" fill="#6B78E5"></path>
</svg>
