<svg width="162" height="152" viewBox="0 0 162 152" fill="none" xmlns="http://www.w3.org/2000/svg">
<circle cx="98" cy="98" r="98" fill="#40DDB6"></circle>
<path d="M51.1701 127.59C51.5173 129.098 52.2548 130.488 53.3088 131.621C54.3628 132.754 55.6961 133.59 57.1751 134.045L58.0751 138H58.0001V148H138V138H71.4151C71.4808 137.538 71.4689 137.068 71.3801 136.61L70.4001 132.295L122.185 120.515L123.165 124.83C123.426 125.975 124.131 126.969 125.125 127.594C126.119 128.22 127.32 128.425 128.465 128.165L132.78 127.18C133.347 127.051 133.884 126.812 134.358 126.476C134.833 126.14 135.237 125.714 135.546 125.221C135.856 124.729 136.066 124.181 136.163 123.607C136.261 123.034 136.245 122.447 136.115 121.88L134.86 116.365C137.09 114.285 138.21 111.135 137.485 107.95L134.535 95C134.177 93.44 133.401 92.007 132.289 90.8555C131.177 89.704 129.772 88.8775 128.225 88.465L117.98 71.575C116.469 69.0935 114.218 67.149 111.542 66.0159C108.867 64.8828 105.904 64.6185 103.07 65.26L63.7301 74.21C60.8935 74.8526 58.3313 76.3721 56.4071 78.5531C54.4829 80.734 53.2943 83.4655 53.0101 86.36L51.0751 106.02C49.8615 107.062 48.9548 108.416 48.4527 109.934C47.9505 111.453 47.8718 113.08 48.2251 114.64L51.1701 127.59ZM66.2701 124.15C65.4201 124.343 64.5403 124.368 63.6809 124.222C62.8215 124.076 61.9993 123.762 61.2614 123.297C60.5234 122.833 59.884 122.229 59.3798 121.517C58.8755 120.806 58.5163 120.002 58.3226 119.152C58.1289 118.302 58.1045 117.423 58.2509 116.563C58.3972 115.704 58.7113 114.882 59.1754 114.144C59.6394 113.405 60.2443 112.767 60.9555 112.262C61.6666 111.758 62.4701 111.398 63.3201 111.205C65.0367 110.814 66.8384 111.12 68.3289 112.058C69.8193 112.995 70.8764 114.486 71.2676 116.202C71.6588 117.919 71.3521 119.721 70.4149 121.212C69.4776 122.701 67.9867 123.759 66.2701 124.15ZM122.38 111.39C121.516 111.628 120.612 111.688 119.724 111.566C118.835 111.445 117.981 111.146 117.211 110.686C116.442 110.225 115.774 109.614 115.247 108.889C114.72 108.163 114.346 107.338 114.147 106.464C113.947 105.59 113.927 104.685 114.087 103.802C114.247 102.92 114.584 102.079 115.078 101.331C115.572 100.582 116.212 99.942 116.96 99.4475C117.708 98.9535 118.548 98.6155 119.43 98.455C121.113 98.1485 122.849 98.503 124.277 99.445C125.705 100.387 126.714 101.843 127.094 103.511C127.474 105.178 127.197 106.929 126.318 108.396C125.44 109.864 124.03 110.937 122.38 111.39ZM65.9451 83.96L105.29 75.005C106.079 74.8269 106.903 74.9004 107.647 75.2152C108.392 75.53 109.019 76.0702 109.44 76.76L117.365 89.825L114.535 90.47L64.3051 101.905L61.4651 102.55L62.9601 87.34C63.0406 86.5349 63.3721 85.7753 63.9077 85.1688C64.4434 84.5622 65.1561 84.1394 65.9451 83.96ZM130.025 58L123 48L120.5 63L133 83L148 88L138 75.305L148 70.64L138 65.975L148 48L130.025 58Z" fill="white"></path>
</svg>
