<svg width="162" height="152" viewBox="0 0 162 152" fill="none" xmlns="http://www.w3.org/2000/svg">
<circle cx="98" cy="98" r="98" fill="#40DDB6"></circle>
<g clip-path="url('#clip0_8001_1048')">
<path d="M141.45 112.7C138.55 114.5 135.8 115.9 133.35 116.9C131.65 117.65 129.8 118 128 118C126.2 118 124.35 117.65 122.65 116.9C118.3 115.1 113 112.1 107.85 108H60.1L67.5 91C68.3 89.2 70.1 88 72.05 88H91.75C90.35 84.9 89.25 81.55 88.65 78H72.05C66.1 78 60.7 81.55 58.3 87L48.4 109.75C48.35 109.85 48.4 109.95 48.35 110.1C42.25 113.2 38 119.45 38 126.75V145.5C38 152.4 43.6 158 50.5 158C57.4 158 63 152.4 63 145.5V143H123V145.5C123 152.4 128.6 158 135.5 158C142.4 158 148 152.4 148 145.5V126.75C148 121.1 145.45 116.05 141.45 112.7ZM68 133H58C55.25 133 53 130.75 53 128C53 125.25 55.25 123 58 123H68C70.75 123 73 125.25 73 128C73 130.75 70.75 133 68 133ZM128 133H118C115.25 133 113 130.75 113 128C113 125.25 115.25 123 118 123H128C130.75 123 133 125.25 133 128C133 130.75 130.75 133 128 133Z" fill="white"></path>
<path d="M155.455 47.1301L129.205 38.2001C128.425 37.9301 127.575 37.9301 126.795 38.2001L100.545 47.1301C99.02 47.6451 98 49.0751 98 50.6801V70.7701C98 95.2901 125.37 107.21 126.535 107.705C127.475 108.1 128.525 108.1 129.465 107.705C130.63 107.21 158 95.2901 158 70.7701V50.6801C158 49.0751 156.98 47.6451 155.455 47.1301ZM144.43 66.0901L130.68 83.5901C128.93 85.8251 125.65 86.1501 123.5 84.3001L114.75 76.8001C112.65 75.0051 112.405 71.8451 114.21 69.7501C116.005 67.6551 119.165 67.4151 121.255 69.2101L126.045 73.3151L136.57 59.9201C138.275 57.7501 141.415 57.3651 143.59 59.0801C145.76 60.7751 146.14 63.9201 144.43 66.0901Z" fill="white"></path>
</g>
<defs>
<clipPath id="clip0_8001_1048">
<rect width="120" height="120" fill="white" transform="translate(38 38)"></rect>
</clipPath>
</defs>
</svg>
