<svg width="14" height="11" viewBox="0 0 14 11" fill="none" xmlns="http://www.w3.org/2000/svg">
<path d="M13 0.5H1C0.867392 0.5 0.740215 0.552679 0.646447 0.646447C0.552678 0.740215 0.5 0.867392 0.5 1V9.5C0.5 9.76522 0.605357 10.0196 0.792893 10.2071C0.98043 10.3946 1.23478 10.5 1.5 10.5H12.5C12.7652 10.5 13.0196 10.3946 13.2071 10.2071C13.3946 10.0196 13.5 9.76522 13.5 9.5V1C13.5 0.867392 13.4473 0.740215 13.3536 0.646447C13.2598 0.552679 13.1326 0.5 13 0.5ZM11.7144 1.5L7 5.82187L2.28562 1.5H11.7144ZM12.5 9.5H1.5V2.13688L6.66187 6.86875C6.75412 6.95343 6.87478 7.00041 7 7.00041C7.12522 7.00041 7.24588 6.95343 7.33813 6.86875L12.5 2.13688V9.5Z" fill="#40DDB6"></path>
</svg>
