<svg width="162" height="152" viewBox="0 0 162 152" fill="none" xmlns="http://www.w3.org/2000/svg">
<circle cx="98" cy="98" r="98" fill="#40DDB6"></circle>
<g clip-path="url('#clip0_8001_1174')">
<path fill-rule="evenodd" clip-rule="evenodd" d="M128.559 158.001C128.192 158.001 127.826 157.926 127.484 157.777C105.646 148.246 105.646 133.958 105.646 115.867C105.646 114.383 106.849 113.181 108.333 113.181L148.786 113.18C150.27 113.18 151.472 114.383 151.472 115.867C151.472 133.958 151.472 148.246 129.634 157.776C129.291 157.926 128.925 158.001 128.559 158.001ZM124.668 142.126C125.116 142.126 125.545 141.949 125.862 141.632L140.771 126.723C141.431 126.064 141.431 124.995 140.771 124.335C140.11 123.675 139.043 123.674 138.382 124.335L124.668 138.049L120.37 133.75C119.71 133.09 118.641 133.09 117.981 133.75C117.32 134.409 117.32 135.478 117.98 136.138L123.473 141.631C123.79 141.949 124.22 142.126 124.668 142.126Z" fill="white"></path>
<path fill-rule="evenodd" clip-rule="evenodd" d="M89.2953 157.006C65.6016 157.006 51.1069 150.453 46.2124 137.53C39.7674 120.511 52.9779 97.336 66.2471 83.4916C66.9048 85.2467 68.2817 86.6671 70.065 87.3652C75.4589 89.4771 81.152 90.565 86.9437 90.565C93.534 90.565 102.075 88.8905 107.917 85.5872C109.349 84.7775 110.389 83.4917 110.915 82.0145C118.803 89.7664 125.64 99.6287 129.762 109.191L108.333 109.191C104.647 109.191 101.657 112.181 101.657 115.867C101.657 124.361 101.545 133.53 104.685 141.554C106.644 146.562 109.649 150.55 113.37 153.802C106.823 155.93 98.7585 157.006 89.2953 157.006ZM88.8346 130.019C92.1031 129.256 94.5549 126.282 94.5549 122.799C94.5549 117.884 91.7551 116.438 87.5366 115.434C84.8534 114.795 83.1147 114.472 83.1147 111.358C83.1147 109.142 84.909 107.339 87.1217 107.326C88.792 107.336 90.3444 108.387 90.9263 109.955C91.2505 110.829 92.224 111.273 93.0983 110.95C93.9722 110.626 94.4173 109.65 94.0931 108.777C93.2212 106.43 91.2112 104.707 88.8346 104.144V102.599C88.8346 101.665 88.0789 100.91 87.1452 100.91C86.2112 100.91 85.456 101.665 85.456 102.599V104.142C82.1815 104.908 79.7358 107.853 79.7358 111.358C79.7358 116.272 82.5358 117.718 86.7538 118.722C89.4378 119.36 91.1768 119.683 91.1768 122.799C91.1768 125.052 89.3719 126.82 87.1275 126.829C87.1167 126.829 87.1383 126.829 87.1275 126.829C85.5571 126.829 84.0686 125.948 83.4358 124.498C83.0637 123.645 82.063 123.255 81.2107 123.626C80.3589 123.997 79.9683 125 80.3401 125.85C81.2882 128.019 83.2121 129.53 85.456 130.029V131.558C85.456 132.492 86.2112 133.247 87.1452 133.247C88.0786 133.247 88.8346 132.492 88.8346 131.558L88.8346 130.019Z" fill="white"></path>
<path fill-rule="evenodd" clip-rule="evenodd" d="M86.9436 86.5753C81.6704 86.5753 76.4808 85.5915 71.519 83.6502C70.6349 83.3039 69.9985 82.5166 69.8465 81.5792C68.8184 75.2627 64.8894 57.6092 59.1246 51.8436C58.4279 51.146 58.1685 50.1234 58.4492 49.1786C58.7296 48.2338 59.5061 47.5179 60.4708 47.315C60.7064 47.2655 66.314 46.0984 72.0101 46.0984C73.3466 46.0984 74.5776 46.1612 75.7085 46.2875L76.1744 47.1442C77.7641 50.0719 79.2175 53.1466 80.3322 56.2869C81.4791 59.5163 82.4853 63.4438 82.0554 66.8869C81.94 67.8107 82.5961 68.658 83.5212 68.7726C83.5921 68.7809 83.6635 68.7851 83.7349 68.7851C84.5848 68.7851 85.3028 68.1487 85.408 67.3052C85.8371 63.8663 85.0418 60.0491 84.0156 56.7733C82.8627 53.0921 81.2358 49.4765 79.4284 46.0705C78.8648 45.0086 78.2425 43.8517 77.5889 42.7553C77.6462 41.3429 77.9408 40.1182 78.8075 39.1942C79.3188 38.6503 80.2461 38 81.7559 38C82.5629 38 83.3726 38.1708 84.3979 38.3862C85.312 38.5783 86.3492 38.7967 87.6151 38.9412C95.8417 39.8785 107.607 41.8273 114.777 47.8936C115.827 48.7817 116.036 50.32 115.263 51.4569C115.155 51.6158 104.494 67.4785 107.242 79.1634C107.516 80.3239 106.991 81.5261 105.953 82.1146C105.632 82.2954 97.9699 86.5753 86.9436 86.5753Z" fill="white"></path>
</g>
<defs>
<clipPath id="clip0_8001_1174">
<rect width="120" height="120" fill="white" transform="translate(38 38)"></rect>
</clipPath>
</defs>
</svg>
