<svg width="22" height="24" viewBox="0 0 22 24" fill="none" xmlns="http://www.w3.org/2000/svg">
<path d="M12.2514 1.16329C13.2317 2.7928 12.1207 4.83186 11.2929 6.6095C10.5783 8.1388 10.6872 9.87287 12.5999 9.65067C14.9048 9.38489 15.8372 9.2019 17.7978 9.06683C19.7802 8.93177 20.4033 9.74216 20.4033 10.4959C20.4033 11.7115 19.9981 11.803 19.9981 12.2692C19.9981 12.7354 21.5187 12.4348 21.5187 13.9641C21.5187 15.4934 20.3292 15.4454 20.3292 15.8724C20.3292 16.2994 21.4882 16.4911 21.4882 17.7154C21.4882 18.9397 19.9284 19.1009 19.9284 19.6063C19.9284 20.1118 20.4338 20.2425 20.4338 21.0006C20.4338 21.7587 18.8522 23.4231 13.2753 23.4231C3.77272 23.4231 4.89682 21.1487 0.461426 21.1487V12.7354C2.77062 12.7354 2.64427 10.692 4.23892 9.13219C5.84664 7.55932 8.92267 3.99532 9.52828 1.18507C9.92912 -0.697138 11.6501 0.156828 12.2514 1.16329Z" fill="#40DDB6"></path>
</svg>
