<svg width="162" height="152" fill="none" xmlns="http://www.w3.org/2000/svg">
  <circle cx="98" cy="98" r="98" fill="#40DDB6"/>
  <path d="M136.475 114.388a25.894 25.894 0 0 0-7.2-1.388l-15-10.087A29.997 29.997 0 0 0 97.55 98H81.725a18.75 18.75 0 0 0-13.275 5.475l-5.738 5.775H56.75a7.498 7.498 0 0 0-7.5 7.5v18.75a7.499 7.499 0 0 0 7.5 7.5h8.175a11.248 11.248 0 0 0 17.032 5.374A11.248 11.248 0 0 0 86.075 143h23.85a11.246 11.246 0 0 0 10.575 7.412A11.252 11.252 0 0 0 131.075 143h8.175a7.497 7.497 0 0 0 7.5-7.5v-6.9a14.999 14.999 0 0 0-10.275-14.212ZM75.5 143a3.75 3.75 0 1 1 0-7.501 3.75 3.75 0 0 1 0 7.501Zm-2.213-30a9.194 9.194 0 0 1-3.15-.6l3.75-3.75a11.25 11.25 0 0 1 7.838-3.15H97.55a22.499 22.499 0 0 1 12.487 3.75l5.588 3.75H73.287Zm47.213 30a3.747 3.747 0 0 1-3.465-2.315 3.755 3.755 0 0 1 .813-4.087 3.759 3.759 0 0 1 4.087-.813 3.752 3.752 0 0 1 1.217 6.117A3.752 3.752 0 0 1 120.5 143Zm18.75-11.25h-3.75a3.752 3.752 0 0 1-3.75-3.75 3.752 3.752 0 0 1 3.75-3.75h2.362a7.496 7.496 0 0 1 1.388 4.35v3.15ZM83 94.25a3.75 3.75 0 0 0 3.75-3.3A15.562 15.562 0 0 1 98 86.75a15.56 15.56 0 0 1 11.25 4.2 3.76 3.76 0 0 0 3.975 3.525 3.756 3.756 0 0 0 3.525-3.975c0-14.588 0-34.275-15-40.2v-1.05a3.75 3.75 0 1 0-7.5 0v1.05c-15 5.925-15 25.612-15 40.2A3.75 3.75 0 0 0 83 94.25Zm45-7.5a15.56 15.56 0 0 1 11.25 4.2 3.755 3.755 0 0 0 6.561 2.268 3.76 3.76 0 0 0 .939-2.718c0-16.5-12.863-31.5-30.263-37.913 7.013 9.788 7.763 23.85 7.763 34.575a16.911 16.911 0 0 1 3.75-.412Zm-75 7.5a3.75 3.75 0 0 0 3.75-3.3A15.562 15.562 0 0 1 68 86.75c1.261-.003 2.52.136 3.75.412 0-10.725.75-24.787 7.763-34.575C62.113 59 49.25 74 49.25 90.5A3.75 3.75 0 0 0 53 94.25Z" fill="#fff"/>
</svg>
