<svg width="162" height="152" fill="none" xmlns="http://www.w3.org/2000/svg">
  <circle cx="98" cy="98" r="98" fill="#40DDB6"/>
  <path d="M51.17 127.59a8.825 8.825 0 0 0 6.005 6.455l.9 3.955H58v10h80v-10H71.415a4.199 4.199 0 0 0-.035-1.39l-.98-4.315 51.785-11.78.98 4.315a4.427 4.427 0 0 0 5.3 3.335l4.315-.985a4.428 4.428 0 0 0 3.335-5.3l-1.255-5.515c2.23-2.08 3.35-5.23 2.625-8.415L134.535 95a8.798 8.798 0 0 0-6.31-6.535l-10.245-16.89a13.868 13.868 0 0 0-14.91-6.315l-39.34 8.95a13.845 13.845 0 0 0-10.72 12.15l-1.935 19.66a8.804 8.804 0 0 0-2.85 8.62l2.945 12.95Zm15.1-3.44c-.85.193-1.73.218-2.59.072a6.616 6.616 0 0 1-2.419-.925 6.625 6.625 0 0 1-2.938-4.145 6.636 6.636 0 0 1 4.997-7.947 6.636 6.636 0 0 1 7.948 4.997 6.642 6.642 0 0 1-4.998 7.948Zm56.11-12.76a6.645 6.645 0 0 1-7.133-2.501 6.636 6.636 0 0 1-1.16-5.087 6.633 6.633 0 0 1 2.873-4.355 6.64 6.64 0 1 1 5.42 11.943ZM65.945 83.96l39.345-8.955a3.864 3.864 0 0 1 4.15 1.755l7.925 13.065-2.83.645-50.23 11.435-2.84.645 1.495-15.21a3.86 3.86 0 0 1 2.985-3.38ZM130.025 58 123 48l-2.5 15L133 83l15 5-10-12.695 10-4.665-10-4.665L148 48l-17.975 10Z" fill="#fff"/>
</svg>
