<svg width="162" height="152" fill="none" xmlns="http://www.w3.org/2000/svg">
  <circle cx="98" cy="98" r="98" fill="#40DDB6"/>
  <g clip-path="url('#clip0_8001_1048')" fill="#fff">
    <path d="M141.45 112.7c-2.9 1.8-5.65 3.2-8.1 4.2-1.7.75-3.55 1.1-5.35 1.1-1.8 0-3.65-.35-5.35-1.1-4.35-1.8-9.65-4.8-14.8-8.9H60.1l7.4-17c.8-1.8 2.6-3 4.55-3h19.7c-1.4-3.1-2.5-6.45-3.1-10h-16.6c-5.95 0-11.35 3.55-13.75 9l-9.9 22.75c-.05.1 0 .2-.05.35-6.1 3.1-10.35 9.35-10.35 16.65v18.75c0 6.9 5.6 12.5 12.5 12.5S63 152.4 63 145.5V143h60v2.5c0 6.9 5.6 12.5 12.5 12.5s12.5-5.6 12.5-12.5v-18.75c0-5.65-2.55-10.7-6.55-14.05ZM68 133H58c-2.75 0-5-2.25-5-5s2.25-5 5-5h10c2.75 0 5 2.25 5 5s-2.25 5-5 5Zm60 0h-10c-2.75 0-5-2.25-5-5s2.25-5 5-5h10c2.75 0 5 2.25 5 5s-2.25 5-5 5Z"/>
    <path d="m155.455 47.13-26.25-8.93c-.78-.27-1.63-.27-2.41 0l-26.25 8.93A3.744 3.744 0 0 0 98 50.68v20.09c0 24.52 27.37 36.44 28.535 36.935a3.77 3.77 0 0 0 2.93 0C130.63 107.21 158 95.29 158 70.77V50.68a3.744 3.744 0 0 0-2.545-3.55ZM144.43 66.09l-13.75 17.5c-1.75 2.235-5.03 2.56-7.18.71l-8.75-7.5a4.99 4.99 0 0 1-.54-7.05 4.997 4.997 0 0 1 7.045-.54l4.79 4.105L136.57 59.92a4.992 4.992 0 0 1 7.02-.84 4.983 4.983 0 0 1 .84 7.01Z"/>
  </g>
  <defs>
    <clipPath id="clip0_8001_1048">
      <path fill="#fff" transform="translate(38 38)" d="M0 0h120v120H0z"/>
    </clipPath>
  </defs>
</svg>
