<svg width="162" height="152" fill="none" xmlns="http://www.w3.org/2000/svg">
  <circle cx="98" cy="98" r="98" fill="#40DDB6"/>
  <g clip-path="url('#clip0_8001_1174')" fill-rule="evenodd" clip-rule="evenodd" fill="#fff">
    <path d="M128.559 158.001a2.69 2.69 0 0 1-1.075-.224c-21.838-9.531-21.838-23.819-21.838-41.91a2.686 2.686 0 0 1 2.687-2.686l40.453-.001a2.686 2.686 0 0 1 2.686 2.687c0 18.091 0 32.379-21.838 41.909-.343.15-.709.225-1.075.225Zm-3.891-15.875c.448 0 .877-.177 1.194-.494l14.909-14.909c.66-.659.66-1.728 0-2.388a1.688 1.688 0 0 0-2.389 0l-13.714 13.714-4.298-4.299a1.689 1.689 0 0 0-2.39 2.388l5.493 5.493c.317.318.747.495 1.195.495Z"/>
    <path d="M89.295 157.006c-23.693 0-38.188-6.553-43.083-19.476-6.445-17.019 6.766-40.194 20.035-54.038a6.677 6.677 0 0 0 3.818 3.873 46.18 46.18 0 0 0 16.879 3.2c6.59 0 15.131-1.674 20.973-4.978a6.666 6.666 0 0 0 2.998-3.573c7.888 7.752 14.725 17.615 18.847 27.177h-21.429a6.677 6.677 0 0 0-6.676 6.676c0 8.494-.112 17.663 3.028 25.687 1.959 5.008 4.964 8.996 8.685 12.248-6.547 2.128-14.612 3.204-24.075 3.204Zm-.46-26.987c3.268-.763 5.72-3.737 5.72-7.22 0-4.915-2.8-6.361-7.018-7.365-2.684-.639-4.422-.962-4.422-4.076a4.035 4.035 0 0 1 4.007-4.032c1.67.01 3.222 1.061 3.804 2.629a1.691 1.691 0 0 0 2.172.995 1.692 1.692 0 0 0 .995-2.173 7.454 7.454 0 0 0-5.258-4.633v-1.545c0-.934-.756-1.689-1.69-1.689-.934 0-1.689.755-1.689 1.689v1.543c-3.275.766-5.72 3.711-5.72 7.216 0 4.914 2.8 6.36 7.018 7.364 2.684.638 4.423.961 4.423 4.077 0 2.253-1.805 4.021-4.05 4.03-.01 0 .011 0 0 0-1.57 0-3.058-.881-3.691-2.331a1.694 1.694 0 0 0-2.225-.872 1.693 1.693 0 0 0-.87 2.224c.947 2.169 2.871 3.68 5.115 4.179v1.529c0 .934.755 1.689 1.69 1.689.933 0 1.689-.755 1.689-1.689v-1.539Z"/>
    <path d="M86.944 86.575a42.172 42.172 0 0 1-15.425-2.925 2.687 2.687 0 0 1-1.672-2.07c-1.029-6.317-4.958-23.97-10.722-29.736a2.688 2.688 0 0 1 1.346-4.529c.235-.05 5.843-1.217 11.54-1.217 1.336 0 2.567.063 3.698.19l.465.856c1.59 2.928 3.043 6.003 4.158 9.143 1.147 3.23 2.153 7.157 1.723 10.6a1.69 1.69 0 0 0 3.353.418c.43-3.439-.366-7.256-1.392-10.532-1.153-3.68-2.78-7.297-4.588-10.703a77.328 77.328 0 0 0-1.84-3.315c.058-1.412.353-2.637 1.22-3.56.51-.545 1.438-1.195 2.948-1.195.807 0 1.617.17 2.642.386.914.192 1.951.41 3.217.555 8.227.938 19.992 2.886 27.162 8.953a2.688 2.688 0 0 1 .486 3.563c-.108.159-10.769 16.021-8.021 27.706a2.684 2.684 0 0 1-1.289 2.952c-.321.18-7.983 4.46-19.01 4.46Z"/>
  </g>
  <defs>
    <clipPath id="clip0_8001_1174">
      <path fill="#fff" transform="translate(38 38)" d="M0 0h120v120H0z"/>
    </clipPath>
  </defs>
</svg>
